<svg width="132" height="132" viewBox="0 0 132 132" fill="none" xmlns="http://www.w3.org/2000/svg">
<path fill-rule="evenodd" clip-rule="evenodd" d="M0 57.4839C0 19.1613 19.1613 0 57.4839 0H74.5161C112.839 0 132 19.1613 132 57.4839V119.226C132 127.742 127.742 132 119.226 132H57.4839C19.1613 132 0 112.839 0 74.5161V57.4839ZM34.0645 68.129C34.0645 73.4933 35.4104 78.6378 37.806 82.4308C40.2016 86.2239 43.4508 88.3548 46.8387 88.3548C50.2266 88.3548 53.4758 86.2239 55.8714 82.4308C58.2671 78.6378 59.6129 73.4933 59.6129 68.129C59.6129 62.7648 58.2671 57.6203 55.8714 53.8272C53.4758 50.0342 50.2266 47.9032 46.8387 47.9032C43.4508 47.9032 40.2016 50.0342 37.806 53.8272C35.4104 57.6203 34.0645 62.7648 34.0645 68.129ZM72.3871 68.129C72.3871 73.4933 73.733 78.6378 76.1286 82.4308C78.5242 86.2239 81.7734 88.3548 85.1613 88.3548C88.5492 88.3548 91.7984 86.2239 94.194 82.4308C96.5896 78.6378 97.9355 73.4933 97.9355 68.129C97.9355 62.7648 96.5896 57.6203 94.194 53.8272C91.7984 50.0342 88.5492 47.9032 85.1613 47.9032C81.7734 47.9032 78.5242 50.0342 76.1286 53.8272C73.733 57.6203 72.3871 62.7648 72.3871 68.129Z" fill="#2DA3FF"/>
</svg>
