<svg width="138" height="137" viewBox="0 0 138 137" fill="none" xmlns="http://www.w3.org/2000/svg">
<path d="M123.971 68.6908C131.358 57.8831 136.992 46.8358 137.904 33.8897C139.255 14.9186 126.162 -0.228105 106.719 0.00260083C92.8395 0.171193 80.2832 5.90334 68.9701 14.0313C57.1382 5.64601 43.7323 -0.787122 28.8418 0.126827C12.7887 1.10289 1.0552 12.5317 0.080388 28.6278C-0.813935 43.4374 5.8756 56.7295 14.0765 68.7617C5.16908 80.7407 -1.06435 94.6274 0.151934 109.304C1.57391 126.474 15.2213 137.406 32.2581 136.988C46.0307 136.651 57.8357 130.724 69.1579 123.093C80.6946 131.176 92.8306 137.201 107.712 136.909C126.967 136.536 138.817 121.895 137.949 104.193C137.314 91.0869 132.047 79.6581 123.98 68.6908H123.971ZM49.3755 84.148C44.2868 82.471 41.4428 75.3901 40.2891 70.2436C38.3395 61.5478 38.5899 52.5857 40.9599 43.9964C41.9615 40.3583 43.5624 37.0841 45.9949 34.2446C46.7372 33.375 47.7567 32.745 48.7584 32.2481C53.7219 29.7547 58.2382 34.3245 60.3667 39.1604C68.8538 58.4332 61.0732 88.0079 49.3755 84.148ZM97.6778 70.0129C96.6404 74.556 94.5566 79.9687 90.9793 82.9413C88.0191 85.3992 84.2451 85.2749 81.4906 82.7017C79.1832 80.5455 77.7255 77.7859 76.6255 74.7601C73.1287 65.1592 73.1913 51.3168 76.8669 41.7781C77.8417 39.2492 79.0133 36.9155 80.7841 34.8924C83.6548 31.627 87.5183 30.7131 91.0151 33.4017C94.6461 36.1879 96.7924 41.9821 97.7851 46.5519C99.4575 54.2983 99.4396 62.2842 97.6778 70.0129Z" fill="#FFD400"/>
</svg>
