<svg width="152" height="152" viewBox="0 0 152 152" fill="none" xmlns="http://www.w3.org/2000/svg">
<path fill-rule="evenodd" clip-rule="evenodd" d="M76 0C88.1723 0 98.0399 9.86762 98.04 22.04V22.7907L98.5708 22.2598C107.178 13.6527 121.133 13.6527 129.74 22.2598C138.347 30.867 138.347 44.822 129.74 53.4292L129.209 53.9601H129.96C142.132 53.9601 152 63.8277 152 76C152 88.1723 142.132 98.0399 129.96 98.04H129.209L129.74 98.5708C138.347 107.178 138.347 121.133 129.74 129.74C121.133 138.347 107.178 138.347 98.5708 129.74L98.04 129.209V129.96C98.0399 142.132 88.1723 152 76 152C63.8277 152 53.9601 142.132 53.9601 129.96V129.209L53.4292 129.74C44.822 138.347 30.867 138.347 22.2598 129.74C13.6527 121.133 13.6527 107.178 22.2598 98.5708L22.7907 98.04H22.04C9.86762 98.0399 2.75362e-06 88.1723 0 76C0 63.8277 9.86762 53.9601 22.04 53.9601H22.7907L22.2598 53.4292C13.6527 44.822 13.6527 30.867 22.2598 22.2598C30.867 13.6527 44.822 13.6527 53.4292 22.2598L53.9601 22.7907V22.04C53.9601 9.86762 63.8277 0 76 0ZM58.0949 43.7966C51.621 43.7966 46.3729 55.4463 46.3729 69.817C46.3729 84.1876 51.621 95.8373 58.0949 95.8373C64.5688 95.8373 69.817 84.1876 69.817 69.817C69.817 55.4463 64.5688 43.7966 58.0949 43.7966ZM93.9051 43.7966C87.4312 43.7966 82.1831 55.4463 82.1831 69.817C82.1831 84.1876 87.4312 95.8373 93.9051 95.8373C100.379 95.8373 105.627 84.1876 105.627 69.817C105.627 55.4463 100.379 43.7966 93.9051 43.7966Z" fill="#71CFFF"/>
</svg>
