<svg width="133" height="134" viewBox="0 0 133 134" fill="none" xmlns="http://www.w3.org/2000/svg">
<path fill-rule="evenodd" clip-rule="evenodd" d="M105.298 0C115.198 0 120.148 6.96182e-05 123.902 2.00262C126.931 3.61864 129.408 6.11462 131.012 9.1667C133 12.9489 133 17.936 133 27.9102V106.09C133 116.064 133 121.051 131.012 124.833C129.408 127.885 126.931 130.381 123.902 131.997C120.148 134 115.198 134 105.298 134H27.7019C17.8022 134 12.8522 134 9.09829 131.997C6.06898 130.381 3.59164 127.885 1.98767 124.833C6.91414e-05 121.051 0 116.064 0 106.09V27.9102C0 17.936 6.91414e-05 12.9489 1.98767 9.1667C3.59164 6.11462 6.06898 3.61864 9.09829 2.00262C12.8522 6.93798e-05 17.8022 0 27.7019 0H105.298ZM49.9937 35.6536C44.0256 35.6536 39.1875 46.4739 39.1875 59.8214C39.1875 73.169 44.0256 83.9893 49.9937 83.9893C55.9619 83.9893 60.8 73.169 60.8 59.8214C60.8 46.4739 55.9619 35.6536 49.9937 35.6536ZM83.0062 35.6536C77.0381 35.6536 72.2 46.4739 72.2 59.8214C72.2 73.169 77.0381 83.9893 83.0062 83.9893C88.9744 83.9893 93.8125 73.169 93.8125 59.8214C93.8125 46.4739 88.9744 35.6536 83.0062 35.6536Z" fill="#006ED4"/>
</svg>
