<svg width="136" height="152" viewBox="0 0 136 152" fill="none" xmlns="http://www.w3.org/2000/svg">
<path fill-rule="evenodd" clip-rule="evenodd" d="M52.1925 0.00234259C66.4436 0.559713 89.5402 4.03054 99.3541 25.6159C103.661 35.0912 103.979 44.8834 101.927 54.8401C100.626 61.1992 96.001 73.6608 106.552 75.3963C114.082 76.6377 117.725 73.0686 119.358 69.2936C120.037 67.7229 122.393 67.3302 123.665 68.5843C136.384 81.2645 137.468 96.1996 134.837 109.057C129.75 133.911 101.031 152 72.4997 152C36.8576 152 8.48546 134.126 1.12866 101.773C-1.83427 88.713 -0.330996 62.8712 22.6499 44.6299C24.3554 43.2619 27.145 44.478 26.9137 46.5301C26.0899 54.232 25.5117 66.187 30.7005 71.9888C30.7005 71.9888 28.2578 58.6911 50.1547 39.9051C58.9713 32.3426 61.0091 22.0566 57.9306 14.342C56.1817 9.97175 52.9875 6.36147 50.2125 3.84063C48.5937 2.35855 49.8367 -0.0862498 52.1925 0.00234259ZM84.6409 90.3603C78.6241 90.3603 73.7465 99.0398 73.7465 109.747C73.7465 120.453 78.6241 129.133 84.6409 129.133C90.6577 129.133 95.5352 120.453 95.5352 109.747C95.5352 99.0398 90.6577 90.3603 84.6409 90.3603ZM51.3592 85.8129C45.3424 85.8129 40.4648 94.4924 40.4648 105.199C40.4648 115.906 45.3424 124.586 51.3592 124.586C57.376 124.586 62.2535 115.906 62.2535 105.199C62.2535 94.4924 57.376 85.8129 51.3592 85.8129Z" fill="#FF5600"/>
</svg>
