<svg width="152" height="140" viewBox="0 0 152 140" fill="none" xmlns="http://www.w3.org/2000/svg">
<path fill-rule="evenodd" clip-rule="evenodd" d="M66.4211 1.95067C72.5456 -0.650223 79.4542 -0.650223 85.5787 1.95067C93.2465 5.20697 99.0446 15.3961 110.64 35.7744L135.719 79.8462C147.195 100.014 152.933 110.864 151.876 119.128C151.032 125.731 148.346 130.95 143.073 134.969C136.474 140 124.169 140 101.078 140H50.9217C27.8311 140 15.5258 140 8.9265 134.969C3.65417 130.95 0.968327 125.731 0.123819 119.128C-0.933187 110.864 4.80483 100.014 16.2812 79.8462L41.3594 35.7744C52.9552 15.3961 58.7533 5.20697 66.4211 1.95067ZM58.7384 71.119C52.4973 71.119 47.4378 81.2502 47.4378 93.7478C47.4378 106.245 52.4973 116.377 58.7384 116.377C64.9796 116.377 70.0391 106.245 70.0391 93.7478C70.0391 81.2502 64.9796 71.119 58.7384 71.119ZM93.2613 71.119C87.0201 71.119 81.9607 81.2502 81.9607 93.7478C81.9607 106.245 87.0201 116.377 93.2613 116.377C99.5025 116.377 104.562 106.245 104.562 93.7478C104.562 81.2502 99.5025 71.119 93.2613 71.119Z" fill="#7671F9"/>
</svg>
