<svg width="957" height="1020" viewBox="0 0 957 1020" fill="none" xmlns="http://www.w3.org/2000/svg">
<path d="M465.046 0.443347C513.942 -2.80112 562.356 11.8451 601.245 41.6494C618.433 54.8736 644.129 79.3759 658.822 94.6582C693.108 130.326 707.937 139.005 757.346 148.579C800.274 156.895 848.394 173.364 883.132 201.304C930.415 239.845 957.316 298.007 956.065 358.988C955.719 384.384 951.28 405.259 945.757 429.871C939.797 456.416 928.81 485.641 927.649 512.496C927.017 527.012 934.017 547.073 937.521 561.619C943.858 587.879 951.905 614.788 954.558 641.809C959.847 695.602 946.767 746.909 912.67 789.215C871.068 840.823 820.657 857.478 758.785 872.138C738.515 876.936 714.742 882.066 696.702 892.243C683.659 899.603 667.842 915.641 656.825 926.64C609.255 974.12 566.613 1012.27 496.129 1019.43C429.805 1025.3 374.287 999.446 325.849 956.191C313.78 945.412 302.401 933.69 290.352 922.64C276.123 909.592 264.579 894.104 246.69 885.14C231.026 877.29 216.002 874.661 199.409 870.247C150.938 857.366 110.563 848.604 70.6592 815.595C17.7972 771.858 -4.60791 712.445 0.781298 644.655C2.52723 622.697 7.05455 606.576 11.8311 585.469C16.9784 562.727 28.1983 533.16 28.1524 510.824C28.0996 485.6 17.0618 453.126 10.6651 428.427C6.46421 411.891 3.45554 395.075 1.66216 378.108C-3.62526 324.694 9.99265 271.721 43.6065 229.636C85.1641 177.605 144.027 159.019 206.307 145.056C220.633 141.844 245.35 136.825 257.843 130.342C269.686 124.195 287.78 105.678 297.638 95.7226C350.042 42.7979 385.669 8.15388 463.268 0.682605C463.983 0.559069 464.225 0.505115 465.046 0.443347ZM372.882 315.516C332.399 315.516 299.581 381.509 299.581 462.915C299.581 544.321 332.399 610.314 372.882 610.314C413.365 610.314 446.184 544.322 446.184 462.915C446.184 381.508 413.365 315.516 372.882 315.516ZM589.6 301.174C549.116 301.174 516.299 367.167 516.299 448.573C516.299 529.98 549.116 595.972 589.6 595.973C630.083 595.973 662.901 529.98 662.901 448.573C662.901 367.167 630.083 301.174 589.6 301.174Z" fill="#191919"/>
</svg>
