<svg width="912" height="1020" viewBox="0 0 912 1020" fill="none" xmlns="http://www.w3.org/2000/svg">
<path fill-rule="evenodd" clip-rule="evenodd" d="M349.997 0.01572C445.563 3.75597 600.446 27.047 666.257 171.896C695.14 235.481 697.273 301.191 683.509 368.006C674.786 410.679 643.771 494.303 714.525 505.949C765.021 514.279 789.447 490.329 800.399 464.997C804.955 454.457 820.753 451.821 829.282 460.237C914.574 545.327 921.843 645.55 904.203 731.831C870.086 898.612 677.501 1020 486.175 1020C247.163 1020 56.9025 900.057 7.56869 682.952C-12.3004 595.311 -2.2196 421.899 151.888 299.49C163.325 290.31 182.031 298.471 180.48 312.242C174.956 363.925 171.079 444.15 205.874 483.082C205.874 483.082 189.494 393.848 336.332 267.784C395.455 217.036 409.12 148.011 388.476 96.2426C376.748 66.9157 355.328 42.6888 336.719 25.7726C325.864 15.8271 334.199 -0.578782 349.997 0.01572ZM567.592 606.365C527.244 606.365 494.535 664.609 494.535 736.458C494.535 808.306 527.244 866.55 567.592 866.55C607.94 866.55 640.648 808.306 640.648 736.458C640.648 664.609 607.94 606.365 567.592 606.365ZM344.409 575.849C304.061 575.849 271.352 634.094 271.352 705.942C271.352 777.79 304.061 836.035 344.409 836.035C384.756 836.035 417.465 777.79 417.465 705.942C417.465 634.094 384.756 575.849 344.409 575.849Z" fill="#191919"/>
</svg>
