<svg width="1020" height="1020" viewBox="0 0 1020 1020" fill="none" xmlns="http://www.w3.org/2000/svg">
<path d="M1019.61 812.918C1019.61 269.5 752.165 0 509.804 0C267.443 0 0 269 0 812.918C0 949.5 80.6904 1020 189.707 1020H829.843C938.859 1020 1019.55 957.5 1019.55 812.918H1019.61ZM367.133 623.388C330.176 611.108 309.439 559.207 301.098 521.498C286.964 457.781 288.759 392.21 305.963 329.187C313.262 302.542 324.847 278.561 342.514 257.766C347.901 251.452 355.316 246.818 362.615 243.111C398.702 224.865 431.488 258.287 447.012 293.795C508.645 434.958 452.168 651.598 367.133 623.33V623.388ZM718.22 519.818C710.69 553.125 695.513 592.746 669.505 614.526C648.014 632.54 620.557 631.613 600.573 612.788C583.775 596.974 573.232 576.816 565.181 554.631C539.751 484.31 540.215 382.942 566.918 313.026C573.985 294.49 582.5 277.402 595.36 262.632C616.213 238.709 644.307 232.047 669.736 251.684C696.093 272.073 711.732 314.532 718.915 348.013C731.08 404.721 730.964 463.226 718.162 519.876L718.22 519.818Z" fill="#1C1C1E"/>
</svg>
