<svg width="1020" height="1020" viewBox="0 0 1020 1020" fill="none" xmlns="http://www.w3.org/2000/svg">
<path fill-rule="evenodd" clip-rule="evenodd" d="M891.96 253.919L766.081 128.04C595.36 -42.6801 424.64 -42.6801 253.919 128.04L128.04 253.919C-42.6801 424.64 -42.6801 595.36 128.04 766.081L253.919 891.96C424.64 1062.68 595.36 1062.68 766.081 891.96L891.96 766.081C1062.68 595.36 1062.68 424.64 891.96 253.919ZM368.04 625.274C331.268 613.055 310.634 561.412 302.334 523.891C288.271 460.49 290.058 395.245 307.176 332.536C314.438 306.023 325.965 282.161 343.545 261.47C348.905 255.187 356.282 250.576 363.545 246.888C399.453 228.732 432.075 261.989 447.522 297.32C508.847 437.781 452.651 653.343 368.04 625.216V625.274ZM717.378 522.277C709.885 555.418 694.784 594.842 668.905 616.513C647.522 634.438 620.202 633.516 600.317 614.784C583.602 599.049 573.112 578.991 565.101 556.916C539.798 486.945 540.259 386.081 566.83 316.513C573.862 298.069 582.334 281.066 595.13 266.369C615.879 242.565 643.833 235.937 669.136 255.476C695.36 275.764 710.922 318.012 718.069 351.326C730.173 407.752 730.058 465.965 717.32 522.334L717.378 522.277Z" fill="#1C1C1E"/>
</svg>
