<svg width="164" height="164" viewBox="0 0 164 164" fill="none" xmlns="http://www.w3.org/2000/svg">
<path fill-rule="evenodd" clip-rule="evenodd" d="M82 0C95.1333 0 105.78 10.6466 105.78 23.7799V24.59L106.353 24.0172C115.639 14.7305 130.696 14.7305 139.983 24.0172C149.269 33.3039 149.269 48.3606 139.983 57.6473L139.41 58.2201H140.22C153.353 58.2201 164 68.8667 164 82C164 95.1333 153.353 105.78 140.22 105.78H139.41L139.983 106.353C149.269 115.639 149.269 130.696 139.983 139.983C130.696 149.269 115.639 149.269 106.353 139.983L105.78 139.41V140.22C105.78 153.353 95.1333 164 82 164C68.8667 164 58.2201 153.353 58.2201 140.22V139.41L57.6473 139.983C48.3606 149.269 33.3039 149.269 24.0172 139.983C14.7305 130.696 14.7305 115.639 24.0172 106.353L24.59 105.78H23.7799C10.6466 105.78 2.97101e-06 95.1333 0 82C0 68.8667 10.6466 58.2201 23.7799 58.2201H24.59L24.0172 57.6473C14.7305 48.3606 14.7305 33.3039 24.0172 24.0172C33.3039 14.7305 48.3606 14.7305 57.6473 24.0172L58.2201 24.59V23.7799C58.2201 10.6466 68.8667 0 82 0ZM62.6814 47.2542C55.6964 47.2542 50.0339 59.8237 50.0339 75.3288C50.0339 90.834 55.6964 103.403 62.6814 103.403C69.6664 103.403 75.3288 90.834 75.3288 75.3288C75.3288 59.8237 69.6664 47.2542 62.6814 47.2542ZM101.319 47.2542C94.3337 47.2542 88.6712 59.8237 88.6712 75.3288C88.6712 90.834 94.3337 103.403 101.319 103.403C108.304 103.403 113.966 90.834 113.966 75.3288C113.966 59.8237 108.304 47.2542 101.319 47.2542Z" fill="#191919"/>
</svg>
