<svg width="1020" height="1020" viewBox="0 0 1020 1020" fill="none" xmlns="http://www.w3.org/2000/svg">
<path fill-rule="evenodd" clip-rule="evenodd" d="M458.52 7.46531C1020.73 -70.4752 1133.31 481.105 917.748 766.202C731.864 1012.05 404.494 1057.85 208.033 994.052C34.9906 937.859 -61.1126 717.497 43.2257 402.308C137.743 116.788 361.251 20.9499 458.52 7.46531ZM425.304 256.821C379.533 256.821 342.429 339.185 342.429 440.786C342.429 542.386 379.533 624.75 425.304 624.75C471.075 624.75 508.179 542.386 508.179 440.786C508.179 339.185 471.075 256.821 425.304 256.821ZM678.483 256.821C632.712 256.821 595.608 339.185 595.608 440.786C595.608 542.386 632.712 624.75 678.483 624.75C724.253 624.75 761.357 542.386 761.357 440.786C761.357 339.185 724.253 256.821 678.483 256.821Z" fill="#191919"/>
</svg>
