<svg width="1020" height="1020" viewBox="0 0 1020 1020" fill="none" xmlns="http://www.w3.org/2000/svg">
<path fill-rule="evenodd" clip-rule="evenodd" d="M0 444.194C0 148.065 148.065 0 444.194 0H575.806C871.935 0 1020 148.065 1020 444.194V921.29C1020 987.097 987.097 1020 921.29 1020H444.194C148.065 1020 0 871.935 0 575.806V444.194ZM263.226 526.452C263.226 567.902 273.626 607.655 292.137 636.966C310.649 666.276 335.756 682.742 361.935 682.742C388.115 682.742 413.222 666.276 431.734 636.966C450.245 607.655 460.645 567.902 460.645 526.452C460.645 485.001 450.245 445.248 431.734 415.938C413.222 386.628 388.115 370.161 361.935 370.161C335.756 370.161 310.649 386.628 292.137 415.938C273.626 445.248 263.226 485.001 263.226 526.452ZM559.355 526.452C559.355 567.902 569.755 607.655 588.266 636.966C606.778 666.276 631.885 682.742 658.065 682.742C684.244 682.742 709.351 666.276 727.863 636.966C746.374 607.655 756.774 567.902 756.774 526.452C756.774 485.001 746.374 445.248 727.863 415.938C709.351 386.628 684.244 370.161 658.065 370.161C631.885 370.161 606.778 386.628 588.266 415.938C569.755 445.248 559.355 485.001 559.355 526.452Z" fill="#191919"/>
</svg>
