<svg width="1014" height="890" viewBox="0 0 1014 890" fill="none" xmlns="http://www.w3.org/2000/svg">
<path fill-rule="evenodd" clip-rule="evenodd" d="M976.981 846.388C898.89 917.061 668.805 861.839 514.586 863.584C360.366 865.328 132.315 925.676 51.745 856.857C-28.9051 787.956 33.2103 585.793 30.7648 450.26C28.3203 314.646 -41.0954 114.008 36.9952 43.3349C115.086 -27.3385 345.171 27.8837 499.39 26.1389C653.61 24.3941 881.661 -35.9538 962.231 32.8654C1042.88 101.766 980.766 303.93 983.212 439.463C985.656 575.077 1055.07 775.714 976.981 846.388ZM263.936 462.693C263.453 503.833 273.059 543.406 290.641 572.707C308.223 602.007 332.341 618.635 357.689 618.933C383.036 619.23 407.538 603.173 425.803 574.293C444.068 545.414 454.601 506.077 455.084 464.937C455.567 423.797 445.96 384.224 428.378 354.924C410.796 325.623 386.679 308.995 361.331 308.697C335.983 308.4 311.481 324.457 293.216 353.337C274.951 382.217 264.419 421.553 263.936 462.693ZM558.407 466.15C557.924 507.29 567.53 546.863 585.112 576.164C602.694 605.464 626.812 622.092 652.16 622.39C677.508 622.688 702.009 606.63 720.274 577.75C738.54 548.871 749.072 509.534 749.555 468.394C750.038 427.254 740.432 387.681 722.85 358.381C705.268 329.08 681.15 312.452 655.802 312.154C630.454 311.857 605.953 327.914 587.688 356.794C569.423 385.674 558.89 425.01 558.407 466.15Z" fill="#191919"/>
</svg>
