<svg width="1019" height="1020" viewBox="0 0 1019 1020" fill="none" xmlns="http://www.w3.org/2000/svg">
<path fill-rule="evenodd" clip-rule="evenodd" d="M806.549 0C882.472 1.30735e-10 920.434 0.0005298 949.224 15.2438C972.456 27.5449 991.455 46.5441 1003.76 69.7764C1019 98.5659 1019 136.528 1019 212.451V807.549C1019 883.472 1019 921.434 1003.76 950.224C991.455 973.456 972.456 992.455 949.224 1004.76C920.434 1020 882.472 1020 806.549 1020H211.451C135.528 1020 97.5659 1020 68.7764 1004.76C45.5441 992.455 26.5449 973.456 14.2438 950.224C-0.99947 921.434 -1 883.472 -1 807.549V212.451C-1 136.528 -0.99947 98.5659 14.2438 69.7764C26.5449 46.5441 45.5441 27.5449 68.7764 15.2438C97.5659 0.000528063 135.528 1.20106e-10 211.451 0H806.549ZM382.411 271.393C336.64 271.393 299.536 353.756 299.536 455.357C299.536 556.958 336.64 639.321 382.411 639.321C428.181 639.321 465.286 556.958 465.286 455.357C465.286 353.756 428.181 271.393 382.411 271.393ZM635.589 271.393C589.819 271.393 552.714 353.756 552.714 455.357C552.714 556.958 589.819 639.321 635.589 639.321C681.36 639.321 718.464 556.958 718.464 455.357C718.464 353.756 681.36 271.393 635.589 271.393Z" fill="#191919"/>
</svg>
