<svg width="1019" height="938" viewBox="0 0 1019 938" fill="none" xmlns="http://www.w3.org/2000/svg">
<path fill-rule="evenodd" clip-rule="evenodd" d="M445.283 13.0695C486.342 -4.3565 532.657 -4.3565 573.715 13.0695C625.119 34.8867 663.989 103.154 741.727 239.688L909.85 534.969C986.787 670.097 1025.26 742.786 1018.17 798.159C1012.51 842.397 994.501 877.364 959.156 904.293C914.914 938 832.42 938 677.622 938H341.376C186.578 938 104.084 938 59.8428 904.293C24.4974 877.364 6.49161 842.397 0.830078 798.159C-6.25603 742.786 32.2114 670.097 109.148 534.969L277.271 239.688C355.009 103.154 393.879 34.8867 445.283 13.0695ZM393.779 476.497C351.939 476.497 318.02 544.377 318.02 628.11C318.02 711.843 351.939 779.723 393.779 779.723C435.62 779.723 469.538 711.843 469.538 628.11C469.538 544.377 435.62 476.497 393.779 476.497ZM625.219 476.497C583.378 476.497 549.46 544.377 549.46 628.11C549.46 711.843 583.378 779.723 625.219 779.723C667.059 779.723 700.978 711.843 700.978 628.11C700.978 544.377 667.059 476.497 625.219 476.497Z" fill="#191919"/>
</svg>
