<svg width="1020" height="1020" viewBox="0 0 1020 1020" fill="none" xmlns="http://www.w3.org/2000/svg">
<path d="M879.354 201.359L704.403 71.8983C574.782 -23.9661 445.218 -23.9661 315.597 71.8983L140.646 201.359C11.0823 297.223 -28.9793 422.745 20.5188 577.865L87.3267 787.319C136.825 942.44 241.668 1020 401.857 1020H618.143C778.332 1020 883.175 942.44 932.673 787.319L999.481 577.865C1048.98 422.745 1008.92 297.223 879.354 201.359ZM367.411 622.525C330.475 610.245 309.75 558.345 301.413 520.636C287.288 456.92 289.082 391.35 306.276 328.328C313.571 301.683 325.149 277.703 342.806 256.908C348.19 250.594 355.601 245.96 362.895 242.253C398.962 224.007 431.729 257.429 447.245 292.937C508.842 434.098 452.397 650.734 367.411 622.467V622.525ZM718.297 519.014C710.771 552.321 695.603 591.941 669.61 613.72C648.132 631.735 620.691 630.808 600.718 611.983C583.929 596.169 573.392 576.012 565.345 553.827C539.93 483.507 540.394 382.14 567.082 312.225C574.145 293.69 582.655 276.602 595.507 261.831C616.349 237.909 644.426 231.248 669.841 250.884C696.182 271.273 711.813 313.731 718.992 347.212C731.149 403.919 731.034 462.423 718.239 519.072L718.297 519.014Z" fill="#191919"/>
</svg>
