<svg width="141" height="141" viewBox="0 0 141 141" fill="none" xmlns="http://www.w3.org/2000/svg">
<path fill-rule="evenodd" clip-rule="evenodd" d="M123.3 35.1006L105.899 17.6997C82.2998 -5.8999 58.7002 -5.8999 35.1006 17.6997L17.6997 35.1006C-5.8999 58.7002 -5.8999 82.2998 17.6997 105.899L35.1006 123.3C58.7002 146.9 82.2998 146.9 105.899 123.3L123.3 105.899C146.9 82.2998 146.9 58.7002 123.3 35.1006ZM50.8762 86.4349C45.7929 84.7458 42.9406 77.607 41.7933 72.4202C39.8492 63.656 40.0962 54.6368 42.4625 45.9682C43.4664 42.3032 45.0599 39.0047 47.49 36.1444C48.231 35.2759 49.2508 34.6385 50.2547 34.1286C55.2184 31.6188 59.728 36.2161 61.8633 41.1001C70.3407 60.5168 62.5724 90.3151 50.8762 86.4269V86.4349ZM99.1669 72.1971C98.1311 76.7784 96.0437 82.2281 92.4663 85.2239C89.5103 87.7017 85.7338 87.5743 82.985 84.9848C80.6744 82.8097 79.2244 80.037 78.1169 76.9855C74.6192 67.313 74.6829 53.37 78.3559 43.7533C79.3279 41.2037 80.4992 38.8533 82.2679 36.8216C85.1362 33.531 89.0004 32.6148 92.4981 35.3157C96.1233 38.1203 98.2745 43.9604 99.2625 48.5656C100.936 56.3657 100.92 64.4129 99.1589 72.205L99.1669 72.1971Z" fill="#C181FE"/>
</svg>
