<svg width="134" height="134" viewBox="0 0 134 134" fill="none" xmlns="http://www.w3.org/2000/svg">
<path d="M134 106.795C134 35.4049 98.8518 0 67 0C35.1482 0 0 35.3392 0 106.795C0 124.738 10.6046 134 24.9318 134H109.061C123.388 134 133.992 125.789 133.992 106.795H134ZM48.2497 81.8961C43.3928 80.2828 40.6674 73.4645 39.5712 68.5105C37.7137 60.1398 37.9497 51.5256 40.2107 43.2462C41.1699 39.7457 42.6924 36.5953 45.0143 33.8634C45.7223 33.0339 46.6967 32.4251 47.656 31.9381C52.3987 29.541 56.7075 33.9319 58.7478 38.5966C66.8477 57.1416 59.4253 85.602 48.2497 81.8885V81.8961ZM94.3908 68.2898C93.4011 72.6655 91.4066 77.8705 87.9884 80.7318C85.1641 83.0984 81.5556 82.9767 78.9292 80.5035C76.7215 78.426 75.336 75.7778 74.2778 72.8633C70.9358 63.6251 70.9967 50.308 74.5062 41.1231C75.435 38.6879 76.554 36.4431 78.2441 34.5026C80.9847 31.3598 84.6769 30.4846 88.0189 33.0643C91.4827 35.743 93.5381 41.3209 94.4821 45.7193C96.0808 53.1693 96.0656 60.8551 94.3831 68.2975L94.3908 68.2898Z" fill="#F04A23"/>
</svg>
