<svg width="134" height="134" viewBox="0 0 134 134" fill="none" xmlns="http://www.w3.org/2000/svg">
<path fill-rule="evenodd" clip-rule="evenodd" d="M60.237 0.980737C134.096 -9.25851 148.886 63.204 120.567 100.658C96.1469 132.955 53.1394 138.972 27.3298 130.591C4.59681 123.209 -8.02852 94.2594 5.67867 52.8522C18.0956 15.3427 47.4585 2.75224 60.237 0.980737ZM55.8733 33.7393C49.8603 33.7393 44.9858 44.5596 44.9858 57.9071C44.9858 71.2547 49.8603 82.075 55.8733 82.075C61.8863 82.075 66.7608 71.2547 66.7608 57.9071C66.7608 44.5596 61.8863 33.7393 55.8733 33.7393ZM89.134 33.7393C83.121 33.7393 78.2465 44.5596 78.2465 57.9071C78.2465 71.2547 83.121 82.075 89.134 82.075C95.147 82.075 100.021 71.2547 100.021 57.9071C100.021 44.5596 95.147 33.7393 89.134 33.7393Z" fill="#FFAD0A"/>
</svg>
